<?xml version="1.0" encoding="UTF-8" standalone="no"?>
<svg
   xmlns:dc="http://purl.org/dc/elements/1.1/"
   xmlns:cc="http://creativecommons.org/ns#"
   xmlns:rdf="http://www.w3.org/1999/02/22-rdf-syntax-ns#"
   xmlns:svg="http://www.w3.org/2000/svg"
   xmlns="http://www.w3.org/2000/svg"
   version="1.1"
   id="_x32_"
   x="0px"
   y="0px"
   viewBox="0 0 512 512"
   style="width: 128px; height: 128px; opacity: 1;"
   xml:space="preserve"><metadata
   id="metadata13"><rdf:RDF><cc:Work
       rdf:about=""><dc:format>image/svg+xml</dc:format><dc:type
         rdf:resource="http://purl.org/dc/dcmitype/StillImage" /><dc:title></dc:title></cc:Work></rdf:RDF></metadata><defs
   id="defs11">
	
</defs>
<style
   type="text/css"
   id="style2">
	.st0{fill:#4B4B4B;}
</style>
<path
   class="st0"
   d="M 256.001,0 H 255.999 C 255.999,0 44.794,134.961 44.794,300.793 44.794,359.117 68.434,411.918 106.653,450.139 132.93,476.416 166.098,495.801 203.215,505.351 220.086,509.692 237.774,512.001 255.998,512.001 H 256 C 274.225,512.001 291.912,509.693 308.783,505.351 345.898,495.801 379.066,476.417 405.344,450.139 443.564,411.918 467.205,359.117 467.205,300.793 467.206,134.961 256.001,0 256.001,0 Z"
   style="fill:#005a74;fill-opacity:1"
   id="path4" />
<g
   aria-label="s"
   transform="scale(1.0704137,0.93421823)"
   id="text841"
   style="font-style:normal;font-variant:normal;font-weight:500;font-stretch:normal;font-size:629.79px;line-height:1.25;font-family:'League Spartan';-inkscape-font-specification:'League Spartan, Medium';font-variant-ligatures:normal;font-variant-caps:normal;font-variant-numeric:normal;font-variant-east-asian:normal;letter-spacing:0px;fill:#ffffff;stroke-width:8.74711"><path
     d="M 249.86622,175.73917 Q 271.59398,175.73917 290.17278,179.83281 308.75158,183.92644 321.97717,189.59455 335.20276,195.26266 340.24108,199.0414 L 315.67927,240.60754 Q 309.38137,235.25433 293.00683,228.32664 276.94719,221.39895 256.79391,221.39895 236.64063,221.39895 222.78525,228.64153 208.92987,235.88412 208.92987,250.36929 208.92987,264.53956 223.41504,273.04173 238.21511,281.54389 263.40671,287.212 284.18977,291.93542 303.08347,300.43759 321.97717,308.62486 333.94318,324.05471 346.22409,339.16967 346.22409,364.67617 346.22409,388.92308 335.83255,405.29762 325.75591,421.35727 308.75158,431.11901 291.74725,440.88075 270.96419,444.97439 250.49601,449.38292 229.71294,449.38292 204.20645,449.38292 184.05317,444.3446 164.21478,439.30628 150.98919,432.69348 137.7636,425.7658 132.09549,421.04237 L 156.6573,374.43791 Q 164.84457,382.31029 183.42338,391.12735 202.00218,399.62951 224.98952,399.62951 249.55133,399.62951 264.35139,390.18266 279.15145,380.73581 279.15145,364.99106 279.15145,353.33995 271.90887,346.09736 264.98118,338.85478 252.70028,334.44625 240.41937,330.03772 225.30441,326.57387 211.13414,323.11003 196.64897,317.75681 182.47869,312.0887 170.51268,303.27164 158.54667,294.13969 151.30409,280.59921 144.0615,267.05872 144.0615,248.79481 144.0615,225.49258 158.86157,209.11804 173.66163,192.7435 197.90855,184.24134 222.15546,175.73917 249.86622,175.73917 Z"
     style="stroke-width:8.74711"
     id="path845" /></g></svg>
